<svg xmlns="http://www.w3.org/2000/svg" width="121" height="25" fill="none"><g fill="#630041" clip-path="url(#clip0)"><path d="M121 0h-7.315v23.348H121V0zM18.196 0l-5.134 8.37L7.93 0H0l9.332 14.456v8.892h7.15v-8.892L25.813 0h-7.617zM92.757 13.2L87.12 0H77.01v23.348h7.02V9.268l6.05 14.08h5.354l6.05-14.08v14.08h7.013V0H98.386l-5.629 13.2zM50.802 24.328c12.384 0 22.495-9.166 22.495-22.229V.01h-7.563V2.1c0 9.341-6.655 15.336-14.932 15.336-8.278 0-14.942-5.995-14.942-15.336V.01h-7.563V2.1c0 13.072 10.111 22.23 22.505 22.23z"/></g><defs><clipPath id="clip0"><path fill="#fff" d="M0 0h121v24.67H0z"/></clipPath></defs></svg>